# xmcd
#
# Track frame offsets:
#	182
#	17147
#	31832
#	47522
#	63232
#	80557
#	94770
#	105857
#	122920
#	141707
#	160732
#	177957
#
# Disc length: 2570 seconds
#
# Revision: 11
# Processed by: cddbd v1.5.1PL0 Copyright (c) Steve Scherf et al.
# Submitted via: audiograbber 1.81.03
#
DISCID=960a080c
DTITLE=Various Artist - The Best Of Country CD3 The New Generation
DYEAR=2001
DGENRE=Country
TTITLE0=Blackhawk  - Blackhawk - I'm Not Strong Enough
TTITLE1=BR5-49  - Even If It's Wrong
TTITLE2=Brooks and Dunn  - My Maria
TTITLE3=Linda Davis  - Some Things Are Meant To Be
TTITLE4=Diamond Rio  - Walkin' Away
TTITLE5=Radney Foster  - Just Call Me Lonesome
TTITLE6=Alan Jackson  - Tall, Tall Trees
TTITLE7=Robert Earl Keene  - Undone
TTITLE8=Charlie Major  - Some Days Are Better
TTITLE9=Jill Morris  - Love Me Out Of My Mind
TTITLE10=Pam Tillis  - The River And The Highway
TTITLE11=Michelle Wright  - Nobody's Girl
EXTD=
EXTT0=
EXTT1=
EXTT2=
EXTT3=
EXTT4=
EXTT5=
EXTT6=
EXTT7=
EXTT8=
EXTT9=
EXTT10=
EXTT11=
PLAYORDER=
